<svg width="41" height="46" viewBox="0 0 41 46" fill="none" xmlns="http://www.w3.org/2000/svg">
<path d="M0 0L3.73149 41.3876L20.4751 46L37.2655 41.3708L41 0H0ZM33.2479 9.48209L32.0058 23.2697L32.0095 23.3441L32.0043 23.5153V23.5139L31.1219 33.1543L31.0246 34.0108L20.5 36.8867L20.4918 36.8941L9.9854 34.002L9.27399 26.0316H14.4261L14.7916 30.0844L20.5015 31.6133L20.5 31.6163V31.6155L26.231 30.065L26.8367 23.4651H14.8562L14.7534 22.3494L14.5192 19.7356L14.3964 18.3321H27.292L27.7611 13.1991H8.11984L8.01704 12.0842L7.78325 9.46963L7.66004 8.06612H33.3708L33.2479 9.48209Z" fill="#D8A48F"/>
</svg>
