<svg width="45" height="45" viewBox="0 0 45 45" fill="none" xmlns="http://www.w3.org/2000/svg">
<path d="M0 0V45H45V0H0ZM23.8028 38.3447C23.1386 39.6943 21.8707 40.581 20.4016 41.009C18.144 41.5274 15.9847 41.2319 14.3784 40.2678C13.3034 39.6083 12.4639 38.5931 11.894 37.4234L15.3212 35.3246C15.3511 35.3372 15.4411 35.5 15.5614 35.7102C15.9984 36.4424 16.3753 36.9608 17.1162 37.3248C17.8441 37.5732 19.4422 37.732 20.0592 36.4511C20.4361 35.7995 20.3162 33.705 20.3162 31.3877C20.3159 27.7463 20.3328 24.12 20.3328 20.52H24.548C24.548 24.48 24.5696 28.2305 24.548 32.0947C24.557 34.4635 24.7626 36.5753 23.8028 38.3447ZM41.2895 37.1538C39.8243 42.1657 31.6552 42.3284 28.3907 39.0172C27.7009 38.2378 27.2686 37.8306 26.8571 36.931C28.5919 35.933 28.5919 35.933 30.28 34.9564C31.1969 36.3658 32.0447 37.1408 33.57 37.458C35.6393 37.7107 37.7212 36.9997 37.2542 34.8019C36.7744 33.007 33.017 32.5703 30.46 30.6508C27.864 28.9073 27.2556 24.6708 29.389 22.2502C30.1 21.3548 31.3124 20.6867 32.5847 20.3656L33.9124 20.1938C36.4615 20.1424 38.0549 20.8156 39.2245 22.1216C39.55 22.4514 39.8156 22.8071 40.3124 23.5778C38.9545 24.4433 38.9588 24.435 37.0138 25.6943C36.5983 24.7993 35.9089 24.2377 35.1803 23.9936C34.0492 23.6509 32.6228 24.0235 32.3269 25.2187C32.2243 25.587 32.2456 25.9297 32.4086 26.5381C32.8669 27.5832 34.4048 28.0375 35.7844 28.6715C39.7555 30.2821 41.0965 32.009 41.4263 34.0646C41.7438 35.8344 41.3496 36.9824 41.2895 37.1538Z" fill="#D8A48F"/>
</svg>
