<svg width="51" height="45" viewBox="0 0 51 45" fill="none" xmlns="http://www.w3.org/2000/svg">
<path d="M25.1968 27.0885C27.731 27.0885 29.7854 25.0341 29.7854 22.4999C29.7854 19.9657 27.731 17.9114 25.1968 17.9114C22.6626 17.9114 20.6083 19.9657 20.6083 22.4999C20.6083 25.0341 22.6626 27.0885 25.1968 27.0885Z" fill="#D8A48F"/>
<path d="M42.6252 14.9329C41.7397 14.6109 40.814 14.2889 39.8479 14.0072C40.0894 13.0411 40.2907 12.0751 40.4517 11.1494C41.297 5.83631 40.3712 2.09302 37.7952 0.644007C37.0304 0.201252 36.1851 0 35.2191 0C32.4016 0 28.8193 2.09302 25.1968 5.59481C21.5742 2.09302 17.9919 0 15.1744 0C14.2084 0 13.3631 0.201252 12.5984 0.644007C10.0224 2.13327 9.0966 5.87656 9.94186 11.1494C10.1029 12.0751 10.3041 13.0411 10.5456 14.0072C9.57961 14.2889 8.65385 14.5707 7.76834 14.9329C2.73703 16.8649 0 19.5215 0 22.5C0 25.4785 2.77728 28.1351 7.76834 30.0671C8.65385 30.3891 9.57961 30.7111 10.5456 30.9928C10.3041 31.9589 10.1029 32.9249 9.94186 33.8506C9.0966 39.1637 10.0224 42.907 12.5984 44.356C13.3631 44.7987 14.2084 45 15.1744 45C18.0322 45 21.6145 42.907 25.1968 39.4052C28.8193 42.907 32.4016 45 35.2191 45C36.1851 45 37.0304 44.7987 37.7952 44.356C40.3712 42.8667 41.297 39.1234 40.4517 33.8506C40.2907 32.9249 40.0894 31.9589 39.8479 30.9928C40.814 30.7111 41.7397 30.4293 42.6252 30.0671C47.6565 28.1351 50.3936 25.4785 50.3936 22.5C50.3936 19.5215 47.6565 16.8649 42.6252 14.9329ZM36.6682 2.65653C38.3184 3.62254 38.8819 6.60107 38.1977 10.8274C38.0769 11.6726 37.8757 12.5581 37.6342 13.4839C35.5411 13.0009 33.3274 12.6789 30.9928 12.4776C29.6243 10.5456 28.2156 8.81485 26.8068 7.24508C29.7853 4.3068 32.8041 2.29428 35.2594 2.29428C35.7826 2.29428 36.2656 2.41503 36.6682 2.65653ZM32.1601 26.525C31.4356 27.8131 30.5903 29.1011 29.7048 30.3891C28.2156 30.5098 26.7263 30.5501 25.1968 30.5501C23.627 30.5501 22.1377 30.5098 20.6887 30.3891C19.8032 29.1011 18.9982 27.8131 18.2737 26.525C17.5089 25.1968 16.7844 23.8283 16.1404 22.5C16.7844 21.1717 17.5089 19.8032 18.2737 18.475C18.9982 17.1869 19.8435 15.8989 20.729 14.6109C22.2182 14.4902 23.7075 14.4499 25.237 14.4499C26.8068 14.4499 28.2961 14.4902 29.7451 14.6109C30.6306 15.8989 31.4356 17.1869 32.1601 18.475C32.9249 19.8032 33.6494 21.1717 34.2934 22.5C33.6091 23.8283 32.9249 25.1565 32.1601 26.525ZM35.5009 25.1968C36.1046 26.6055 36.5877 27.9741 37.0304 29.3426C35.6619 29.6646 34.2129 29.9061 32.6834 30.1073C33.1664 29.3426 33.6896 28.5376 34.1324 27.6923C34.6154 26.847 35.0581 26.0018 35.5009 25.1968ZM25.1968 36.1047C24.2308 35.0581 23.305 33.9311 22.4195 32.7639C23.3453 32.8041 24.271 32.8444 25.1968 32.8444C26.1225 32.8444 27.0483 32.8041 27.9741 32.7639C27.0885 33.9311 26.1628 35.0581 25.1968 36.1047ZM17.7102 30.0671C16.1807 29.8658 14.7317 29.6243 13.3631 29.3023C13.8059 27.9741 14.2889 26.5653 14.8927 25.1565C15.3354 25.9615 15.7782 26.8068 16.2612 27.6118C16.7442 28.4973 17.2272 29.2621 17.7102 30.0671ZM14.8927 19.8032C14.2889 18.3945 13.8059 17.0259 13.3631 15.6574C14.7317 15.3354 16.1807 15.0939 17.7102 14.8927C17.2272 15.6574 16.7039 16.4624 16.2612 17.3077C15.7782 18.153 15.3354 18.9982 14.8927 19.8032ZM25.1968 8.89535C26.1628 9.94186 27.0885 11.0689 27.9741 12.2361C27.0483 12.1959 26.1225 12.1556 25.1968 12.1556C24.271 12.1556 23.3453 12.1959 22.4195 12.2361C23.305 11.0689 24.2308 9.94186 25.1968 8.89535ZM34.1324 17.3479L32.6834 14.9329C34.2129 15.1342 35.6619 15.3757 37.0304 15.6977C36.5877 17.0259 36.1046 18.4347 35.5009 19.8435C35.0581 18.9982 34.6154 18.153 34.1324 17.3479ZM12.1959 10.8274C11.5116 6.60107 12.0751 3.62254 13.7254 2.65653C14.1279 2.41503 14.6109 2.29428 15.1342 2.29428C17.5492 2.29428 20.568 4.26655 23.5868 7.24508C22.178 8.7746 20.7692 10.5456 19.4007 12.4776C17.0662 12.6789 14.8524 13.0411 12.7594 13.4839C12.5179 12.5581 12.3569 11.6726 12.1959 10.8274ZM2.25402 22.5C2.25402 20.6082 4.5483 18.5957 8.57335 17.1064C9.37835 16.7844 10.2639 16.5027 11.1494 16.2612C11.7934 18.2737 12.5984 20.407 13.5644 22.5403C12.5984 24.6735 11.7531 26.7665 11.1494 28.7791C5.59481 27.1691 2.25402 24.754 2.25402 22.5ZM13.7254 42.3435C12.0751 41.3775 11.5116 38.3989 12.1959 34.1726C12.3166 33.3274 12.5179 32.4419 12.7594 31.5161C14.8524 31.9991 17.0662 32.3211 19.4007 32.5224C20.7692 34.4544 22.178 36.1852 23.5868 37.7549C20.6082 40.6932 17.5894 42.7057 15.1342 42.7057C14.6109 42.7057 14.1279 42.585 13.7254 42.3435ZM38.1977 34.1726C38.8819 38.3989 38.3184 41.3775 36.6682 42.3435C36.2656 42.585 35.7826 42.7057 35.2594 42.7057C32.8444 42.7057 29.8256 40.7335 26.8068 37.7549C28.2156 36.2254 29.6243 34.4544 30.9928 32.5224C33.3274 32.3211 35.5411 31.9589 37.6342 31.5161C37.8757 32.4419 38.0367 33.3274 38.1977 34.1726ZM41.8202 27.8936C41.0152 28.2156 40.1297 28.4973 39.2442 28.7388C38.6002 26.7263 37.7952 24.593 36.8292 22.4598C37.7952 20.3265 38.6404 18.2335 39.2442 16.2209C44.7987 17.8309 48.1395 20.246 48.1395 22.5C48.1395 24.3918 45.805 26.4043 41.8202 27.8936Z" fill="#D8A48F"/>
</svg>
