<svg width="43" height="48" viewBox="0 0 43 48" fill="none" xmlns="http://www.w3.org/2000/svg">
<path d="M41.6749 36.7609L22.348 47.7021V39.18L34.372 32.5585L41.6749 36.7609ZM43 35.5645V12.7016L35.928 16.7904V31.4834L42.9962 35.5607L43 35.5645ZM1.32506 36.7609L20.633 47.6945V39.18L8.6053 32.5585L1.32506 36.7609ZM0 35.5645V12.7016L7.07202 16.7904V31.4834L0 35.5645ZM0.829107 11.2213L20.652 0V8.23807L7.95034 15.223L7.84812 15.2798L0.829107 11.2213ZM42.1633 11.2213L22.348 0V8.23807L35.0497 15.2192L35.1519 15.276L42.1709 11.2213H42.1633ZM20.652 37.2417L8.76809 30.7035V17.7633L20.652 24.6082V37.2417ZM22.348 37.2417L34.2319 30.711V17.7633L22.348 24.6082V37.2417ZM9.57449 16.2793L21.5 9.71456L33.4255 16.2793L21.5 23.1544L9.57449 16.2793Z" fill="#D8A48F"/>
</svg>
